<svg width="177" height="70" viewBox="0 0 177 70" fill="none" xmlns="http://www.w3.org/2000/svg">
<g clip-path="url(#clip0_5_47)">
<path d="M14.0176 4H0V70H14.0176V57.4213L23.1108 49.8438L38.5 70H55.1704L33.3404 42.6452L54.9362 22.565H35.9925L14.0176 42.6452V4Z" fill="white"/>
<path d="M62.292 70.3021V22.6341H75.8579V29.4704C77.0086 26.7629 81.9905 21.3481 92.7125 21.3481C103.434 21.3481 108.281 27.7109 109.364 30.8923C111.53 27.034 119.071 19.7235 131.904 21.3481C144.738 22.9726 146.864 33.8735 146.322 39.1209V70.3021H131.904V39.1209C131.634 36.9948 129.589 32.7425 123.579 32.7425C117.568 32.7425 112.207 35.9386 112.207 39.1209V70.3021H97.584V39.1209C97.9309 36.9948 96.4653 32.7425 87.8279 32.7425C79.1904 32.7425 77.0012 36.9948 76.9863 39.1209V70.3021H62.292Z" fill="white"/>
</g>
<defs>
<clipPath id="clip0_5_47">
<rect width="177" height="70" fill="white"/>
</clipPath>
</defs>
</svg>
