<svg width="84" height="70" viewBox="0 0 84 70" fill="none" xmlns="http://www.w3.org/2000/svg">
<g clip-path="url(#clip0_5_42)">
<path d="M0 70.1859V22.5179H13.5659V29.3542C14.7166 26.6467 19.6985 21.2318 30.4205 21.2318C41.1424 21.2318 45.989 27.5946 47.072 30.776C49.238 26.9178 56.7786 19.6073 69.6125 21.2318C82.4463 22.8564 84.5718 33.7573 84.0302 39.0047V70.1859H69.6125V39.0047C69.3417 36.8786 67.2975 32.6263 61.2867 32.6263C55.2759 32.6263 49.9149 35.8224 49.9149 39.0047V70.1859H35.292V39.0047C35.6389 36.8786 34.1733 32.6263 25.5359 32.6263C16.8984 32.6263 14.7092 36.8786 14.6943 39.0047V70.1859H0Z" fill="white"/>
</g>
<defs>
<clipPath id="clip0_5_42">
<rect width="84" height="70" fill="white"/>
</clipPath>
</defs>
</svg>
