<svg width="51" height="70" viewBox="0 0 51 70" fill="none" xmlns="http://www.w3.org/2000/svg">
<path d="M50.7192 34.744H36.9606C36.9606 32.9455 34.91 29.3486 26.7077 29.3486C18.5053 29.3486 16.6361 32.9455 16.7269 34.744C16.7269 36.3626 20.1258 39.5999 33.7217 39.5999C49.2722 39.5999 50.7183 50.2109 50.7192 53.0885C50.7192 57.5526 48.3973 69.8143 28.3263 69.8143C8.25526 69.8143 1.07917 59.7429 0 54.7071H16.7269C17.2661 56.3257 19.4236 59.617 23.7399 59.8328C29.1354 60.1026 37.6147 59.2932 37.6147 53.0885C37.6147 46.8837 20.7724 48.2326 18.3445 48.2326C15.9165 48.2326 2.69861 46.614 2.69861 34.744C2.69861 25.248 12.0508 21.4346 16.7269 20.715C18.975 20.1754 26.1691 19.4201 36.9606 20.715C47.7522 22.0099 50.6295 30.6072 50.7192 34.744Z" fill="white"/>
</svg>
