<svg width="199" height="80" viewBox="0 0 199 80" fill="none" xmlns="http://www.w3.org/2000/svg">
<path d="M47.918 0.263672H34.3624L0.751953 79.8003H15.9071L47.918 0.263672Z" fill="white"/>
<path d="M66.2969 4.7832H52.2793V70.3284H66.2969V58.2045L75.3901 50.627L90.545 70.3284H107.215L85.6197 43.4285L107.215 23.3482H88.2718L66.2969 43.4285V4.7832Z" fill="white"/>
<path d="M114.571 71.0853V23.4174H128.137V30.2536C129.288 27.5461 134.27 22.1313 144.992 22.1313C155.714 22.1313 160.56 28.4941 161.643 31.6755C163.809 27.8172 171.35 20.5067 184.184 22.1313C197.018 23.7558 199.143 34.6567 198.602 39.9041V71.0853H184.184V39.9041C183.913 37.778 181.869 33.5257 175.858 33.5257C169.847 33.5257 164.486 36.7218 164.486 39.9041V71.0853H149.863V39.9041C150.21 37.778 148.745 33.5257 140.107 33.5257C131.47 33.5257 129.28 37.778 129.266 39.9041V71.0853H114.571Z" fill="white"/>
</svg>
