<svg width="63" height="68" viewBox="0 0 63 68" fill="none" xmlns="http://www.w3.org/2000/svg">
<path d="M2.39063 17.1876C4.41999 4.14237 19.4946 -0.495748 31.96 0.0840387C44.4254 0.663861 61.2387 4.72291 60.6592 17.1876C60.1954 27.1593 52.5233 31.972 48.1748 33.1319C53.3988 34.4369 62.6363 39.2533 62.3564 48.0772C62.0063 59.1074 48.1942 68.2124 31.96 67.8624C15.7257 67.5122 0.55192 62.4342 0.551758 49.8282C0.551749 40.899 8.13854 33.1319 15.7256 33.1319C10.6042 32.1656 0.767309 27.6239 2.39063 17.1876ZM31.457 37.0958C22.1277 37.0958 14.5648 41.5033 14.5645 46.9405C14.5645 52.3778 22.1275 56.7862 31.457 56.7862C40.7865 56.7862 48.3496 52.3778 48.3496 46.9405C48.3493 41.5033 40.7863 37.0958 31.457 37.0958ZM31.457 11.4854C23.5762 11.4854 17.1875 15.2088 17.1875 19.8018C17.1876 24.3948 23.5762 28.1182 31.457 28.1182C39.3378 28.1182 45.7265 24.3948 45.7266 19.8018C45.7266 15.2088 39.3379 11.4854 31.457 11.4854Z" fill="white"/>
</svg>
