<svg width="60" height="67" viewBox="0 0 60 67" fill="none" xmlns="http://www.w3.org/2000/svg">
<path d="M56.9608 11.0089H18.7938L16.1429 26.8056C18.1646 21.8431 27.6491 21.4821 32.0275 21.202C59.8737 19.4212 59.5117 41.3482 59.5117 44.15C59.5117 46.9517 58.1775 66.164 31.2508 66.9645C9.70946 67.6049 1.71318 55.4905 0.407715 49.3533L14.6835 46.4181C16.0176 49.7535 18.7938 53.8895 31.2508 54.4232C43.7078 54.9568 44.1689 45.4841 44.1689 44.15C44.1689 42.8158 43.7082 33.0087 31.2508 33.0087C21.2849 33.0087 17.0264 36.366 16.1429 38.0447L2.09549 34.8641L8.19147 0.14209H56.9608V11.0089Z" fill="white"/>
</svg>
