<svg width="62" height="68" viewBox="0 0 62 68" fill="none" xmlns="http://www.w3.org/2000/svg">
<path d="M43.6629 39.303C41.246 40.8246 34.1305 43.8674 25.0018 43.8674C13.5903 43.8673 0.433592 39.1681 0.433395 23.8635C0.433397 8.55857 13.8583 1.04023 28.3582 0.234616C41.7958 -0.511888 60.8485 2.91935 61.9227 22.9231C62.1014 27.5772 60.9283 38.47 54.8064 44.8069C48.6844 51.1437 37.7464 62.3873 33.0428 67.217C31.2126 66.9122 17.7894 67.09 11.3064 67.217L43.6629 39.303ZM31.1863 33.6926C40.2693 33.6925 47.6326 28.6131 47.6326 22.3479C47.6322 16.0829 40.269 11.0042 31.1863 11.0041C22.1035 11.0041 14.7404 16.0829 14.74 22.3479C14.74 28.6131 22.1033 33.6926 31.1863 33.6926Z" fill="white"/>
</svg>
