<svg width="62" height="68" viewBox="0 0 62 68" fill="none" xmlns="http://www.w3.org/2000/svg">
<path d="M18.3978 28.0562C20.8147 26.5345 27.9301 23.4917 37.0589 23.4917C48.4704 23.4918 61.6271 28.191 61.6273 43.4956C61.6273 58.8006 48.2024 66.3189 33.7025 67.1245C20.2649 67.871 1.21222 64.4398 0.138021 44.436C-0.04074 39.7819 1.13242 28.8891 7.25423 22.5522C13.3762 16.2154 24.3143 4.97179 29.0179 0.14209C30.8481 0.446883 44.2713 0.269087 50.7542 0.14209L18.3978 28.0562ZM30.8743 33.6665C21.7914 33.6666 14.4281 38.746 14.4281 45.0112C14.4284 51.2762 21.7916 56.3549 30.8743 56.355C39.9571 56.355 47.3203 51.2763 47.3206 45.0112C47.3206 38.746 39.9574 33.6665 30.8743 33.6665Z" fill="white"/>
</svg>
